<?xml version="1.0" encoding="UTF-8" standalone="no"?>
<svg
   xmlns:dc="http://purl.org/dc/elements/1.1/"
   xmlns:cc="http://creativecommons.org/ns#"
   xmlns:rdf="http://www.w3.org/1999/02/22-rdf-syntax-ns#"
   xmlns:svg="http://www.w3.org/2000/svg"
   xmlns="http://www.w3.org/2000/svg"
   version="1.1"
   id="svg2"
   height="25.251762"
   width="100">
  <defs
     id="defs4" />
  <metadata
     id="metadata3389">
    <rdf:RDF>
      <cc:Work
         rdf:about="">
        <dc:format>image/svg+xml</dc:format>
        <dc:type
           rdf:resource="http://purl.org/dc/dcmitype/StillImage" />
        <dc:title></dc:title>
        <cc:license
           rdf:resource="https://www.blender.org/about/logo/" />
        <dc:creator>
          <cc:Agent>
            <dc:title>NaN Holding B.V, licensed in 2002 to the Blender Foundation</dc:title>
          </cc:Agent>
        </dc:creator>
      </cc:Work>
    </rdf:RDF>
  </metadata>
  <g
     transform="translate(-5.7689474,-22.211946)"
     id="layer1">
    <path
       d="m 21.9738,36.409887 c 0.05812,-1.036294 0.566398,-1.949769 1.33183,-2.597315 0.751725,-0.636033 1.762249,-1.02478 2.865984,-1.02478 1.102091,0 2.113163,0.388747 2.864339,1.02478 0.765981,0.647546 1.273162,1.561021 1.33183,2.596218 0.05812,1.065903 -0.369556,2.055043 -1.121281,2.788673 -0.76598,0.746242 -1.854912,1.215042 -3.074888,1.215042 -1.220524,0 -2.311649,-0.4688 -3.077629,-1.215042 -0.751176,-0.73363 -1.178305,-1.72277 -1.120185,-2.787576"
       style="fill:#ffffff;fill-opacity:1;fill-rule:nonzero;stroke:none"
       id="path4196" />
    <path
       d="m 15.289977,38.504956 c 0.0071,0.406293 0.136527,1.194205 0.330627,1.809951 0.407938,1.303318 1.099897,2.509038 2.063267,3.572199 0.988044,1.091673 2.20473,1.969507 3.610032,2.591832 1.476583,0.654675 3.077081,0.987495 4.739539,0.984754 1.660264,-0.0022 3.260214,-0.342142 4.737345,-1.001203 1.405302,-0.628356 2.620892,-1.510029 3.607839,-2.602798 0.961725,-1.066451 1.653136,-2.274364 2.061622,-3.577683 0.206163,-0.659061 0.335562,-1.326895 0.387651,-1.998019 0.05154,-0.660706 0.02961,-1.32196 -0.06415,-1.983215 C 36.580615,35.011712 36.134844,33.80325 35.448916,32.70116 34.82056,31.688443 34.011263,30.801287 33.04899,30.055045 l 0.0026,-8.77e-4 -9.711557,-7.456932 c -0.0082,-0.0066 -0.01535,-0.01369 -0.0247,-0.01921 -0.637677,-0.489636 -1.709063,-0.487443 -2.409247,0.0026 -0.708957,0.495119 -0.789557,1.314833 -0.159556,1.832432 l -0.0022,0.0022 4.049772,3.293661 -12.34506,0.01369 c -0.006,0 -0.01154,0 -0.01645,0 -1.020394,4.38e-4 -2.001309,0.670027 -2.19486,1.516608 -0.200131,0.861934 0.492925,1.576922 1.553893,1.580212 l -8.78e-4,0.0039 6.256695,-0.01206 -11.1656589,8.570537 c -0.013686,0.01097 -0.029608,0.02136 -0.042768,0.03237 -1.0532916,0.806006 -1.39324,2.147706 -0.7297924,2.995932 0.6727688,0.863578 2.1049384,0.865223 3.1691961,0.005 L 15.37231,37.428306 c 0,0 -0.08937,0.672769 -0.08225,1.076869 z m 15.659557,2.255173 c -1.256164,1.279193 -3.013478,2.004599 -4.916092,2.008437 -1.904808,0.0035 -3.662122,-0.716085 -4.918286,-1.993084 -0.613552,-0.622325 -1.064257,-1.337862 -1.342247,-2.1011 -0.271959,-0.748983 -0.37833,-1.544572 -0.308147,-2.347289 0.06689,-0.785171 0.299922,-1.533058 0.673317,-2.210761 0.366267,-0.665093 0.870158,-1.26713 1.49358,-1.775956 1.219976,-0.994623 2.773869,-1.532509 4.399589,-1.534703 1.626818,-0.0026 3.179614,0.531307 4.400687,1.522092 0.621777,0.506633 1.126216,1.105929 1.492483,1.771021 0.374492,0.676607 0.606424,1.421752 0.67551,2.209116 0.06854,0.80162 -0.03728,1.596113 -0.309243,2.346192 -0.278538,0.764884 -0.727599,1.480421 -1.341151,2.106035"
       style="fill:#ffffff;fill-opacity:1;fill-rule:nonzero;stroke:none"
       id="path4198" />
    <path
       d="m 88.50389,36.393438 c 0.09376,-1.046164 0.901959,-1.709612 2.137288,-1.709612 1.236973,0 2.045722,0.663448 2.139482,1.709612 l -4.27677,0 z m 4.149563,2.583059 c -0.316371,0.775302 -1.061516,1.234232 -2.074782,1.234232 -1.267678,0 -2.121387,-0.791751 -2.156479,-2.04298 l 7.290796,0 c 0,-0.1294 0,-0.237964 0,-0.367912 0,-3.133008 -1.838462,-4.893063 -5.134317,-4.893063 -3.199901,0 -5.134317,1.777052 -5.134317,4.564081 0,2.804025 1.965121,4.577788 5.134317,4.577788 1.902615,0 3.377004,-0.651385 4.286091,-1.797888 l -2.211309,-1.274258"
       style="fill:#ffffff;fill-opacity:1;fill-rule:nonzero;stroke:none"
       id="path4200" />
    <path
       d="m 56.154512,36.398372 c 0.09595,-1.046712 0.904702,-1.710159 2.141127,-1.710159 1.23478,0 2.043528,0.663447 2.137836,1.710159 l -4.278963,0 z m 4.152305,2.58306 c -0.316371,0.777495 -1.062064,1.235877 -2.076426,1.235877 -1.266582,0 -2.122485,-0.793944 -2.155931,-2.044625 l 7.289151,0 c 0,-0.128304 0,-0.236868 0,-0.366267 0,-3.134653 -1.837914,-4.895805 -5.13322,-4.895805 -3.202095,0 -5.133221,1.777601 -5.133221,4.564629 0,2.804574 1.964573,4.578337 5.133221,4.578337 1.901517,0 3.377003,-0.649192 4.287736,-1.796792 l -2.21131,-1.275354"
       style="fill:#ffffff;fill-opacity:1;fill-rule:nonzero;stroke:none"
       id="path4202" />
    <path
       d="m 49.815572,31.012384 2.629117,0 0,10.756076 -2.629117,0 0,-10.756076 z"
       style="fill:#ffffff;fill-opacity:1;fill-rule:nonzero;stroke:none"
       id="path4204" />
    <path
       d="m 64.017737,33.869595 2.64447,0 0,0.640419 c 0.935954,-0.998461 2.059977,-1.503449 3.327107,-1.503449 1.460134,0 2.566062,0.504988 3.136847,1.36418 0.475927,0.710053 0.507729,1.5676 0.507729,2.693268 l 0,4.704447 -2.647759,0 0,-4.133114 c 0,-1.715095 -0.344883,-2.507394 -1.850526,-2.507394 -1.522091,0 -2.473398,0.906895 -2.473398,2.428438 l 0,4.21207 -2.64447,0 0,-7.898865"
       style="fill:#ffffff;fill-opacity:1;fill-rule:nonzero;stroke:none"
       id="path4206" />
    <path
       d="m 82.147952,37.604092 c 0,1.472196 -0.983657,2.437211 -2.5052,2.437211 -1.523737,0 -2.507394,-0.932117 -2.507394,-2.420761 0,-1.510029 0.971046,-2.442146 2.507394,-2.442146 1.521543,0 2.5052,0.949114 2.5052,2.425696 z m 0,-3.376454 c -0.668383,-0.716085 -1.635042,-1.109219 -2.980032,-1.109219 -2.900527,0 -4.881,1.788567 -4.881,4.469224 0,2.628021 1.966766,4.465935 4.833298,4.465935 1.314284,0 2.279847,-0.331724 3.027734,-1.077417 l 0,0.792299 2.645566,0 0,-11.438714 -2.645566,0.682638 0,3.215254"
       style="fill:#ffffff;fill-opacity:1;fill-rule:nonzero;stroke:none"
       id="path4208" />
    <path
       d="m 43.805614,35.178396 c 1.537444,0 2.504103,0.932117 2.504103,2.442146 0,1.488644 -0.982012,2.420761 -2.504103,2.420761 -1.520995,0 -2.503007,-0.965015 -2.503007,-2.437211 0,-1.476582 0.982012,-2.425696 2.503007,-2.425696 z m -2.503007,-4.166012 -2.646663,-0.682638 0,11.438714 2.646663,0 0,-0.792299 c 0.744596,0.745693 1.711256,1.077417 3.026088,1.077417 2.868178,0 4.83275,-1.837914 4.83275,-4.465935 0,-2.680657 -1.981021,-4.469224 -4.879904,-4.469224 -1.347731,0 -2.31439,0.393134 -2.978934,1.109219 l 0,-3.215254"
       style="fill:#ffffff;fill-opacity:1;fill-rule:nonzero;stroke:none"
       id="path4210" />
    <path
       d="m 96.366018,41.76846 0,-7.898865 2.645566,0 0,0.488539 c 0.791751,-0.954597 1.630106,-1.429428 2.584156,-1.429428 0.18916,0 0.42658,0.03071 0.74295,0.06251 l 0,2.251336 c -0.25496,-0.0329 -0.53843,-0.0329 -0.84055,-0.0329 -1.53799,0 -2.486556,1.013813 -2.486556,2.739326 l 0,3.819484 -2.645566,0"
       style="fill:#ffffff;fill-opacity:1;fill-rule:nonzero;stroke:none"
       id="path4212" />
    <path
       d="m 105.76888,32.937479 -0.20287,0 0.007,-0.72431 0.0104,-0.239609 -0.0543,0.19739 -0.24071,0.766529 -0.18533,0 -0.23577,-0.766529 -0.0592,-0.193551 0.0143,0.23577 0.007,0.72431 -0.19848,0 0,-1.173371 0.27853,0 0.29335,0.926086 0.28621,-0.926086 0.27964,0 0,1.173371 z m -1.60763,0 -0.20451,0 0,-0.999558 -0.37669,0 0,-0.173813 0.95131,0 0,0.173813 -0.37011,0 0,0.999558"
       style="fill:#ffffff;fill-opacity:1;fill-rule:nonzero;stroke:none"
       id="path4214" />
  </g>
</svg>
