<?xml version="1.0" encoding="UTF-8" standalone="no"?>
<!-- Created with Inkscape (http://www.inkscape.org/) -->
<svg
	 xmlns:dc="http://purl.org/dc/elements/1.1/"
	 xmlns:cc="http://creativecommons.org/ns#"
	 xmlns:rdf="http://www.w3.org/1999/02/22-rdf-syntax-ns#"
	 xmlns:svg="http://www.w3.org/2000/svg"
	 xmlns="http://www.w3.org/2000/svg"
	 width="16"
	 height="16"
	 viewBox="0 0 16 16"
	 id="svg3384"
	 version="1.1"
	preserveAspectRatio="xMidYMid">
	<defs id="defs3386" />
	<metadata
	 id="metadata3389">
	<rdf:RDF>
		<cc:Work
		 rdf:about="">
		<dc:format>image/svg+xml</dc:format>
		<dc:type
			 rdf:resource="http://purl.org/dc/dcmitype/StillImage" />
		<dc:title />
		<cc:license
			 rdf:resource="http://creativecommons.org/licenses/by-sa/3.0/" />
		<dc:creator><cc:Agent><dc:title>NaN Holding B.V, licensed in 2002 to the Blender Foundation</dc:title></cc:Agent></dc:creator>
		</cc:Work>
		<cc:License rdf:about="http://creativecommons.org/licenses/by-sa/3.0/">
		<cc:permits rdf:resource="http://creativecommons.org/ns#Reproduction" />
		<cc:permits rdf:resource="http://creativecommons.org/ns#Distribution" />
		<cc:requires rdf:resource="http://creativecommons.org/ns#Notice" />
		<cc:requires rdf:resource="http://creativecommons.org/ns#Attribution" />
		<cc:permits rdf:resource="http://creativecommons.org/ns#DerivativeWorks" />
		<cc:requires rdf:resource="http://creativecommons.org/ns#ShareAlike" />
		</cc:License>
	</rdf:RDF>
	</metadata>
	<g id="layer2" style="display:inline">
	<path
		 id="path3460"
		 style="opacity:1;fill:#ffffff;fill-opacity:1;fill-rule:nonzero;stroke:none"
		 d="M 6.9898324,8.6924484 C 7.0984068,7.8236813 7.5704631,7.0674476 8.2386869,6.5399637 8.8949451,6.0217518 9.749832,5.7165403 10.658688,5.7397836 c 0.907505,0.022862 1.717284,0.3707502 2.298566,0.9204612 0.592799,0.5596181 0.956913,1.33719 0.944565,2.2074812 -0.0146,0.8960747 -0.424703,1.717466 -1.086686,2.317601 -0.674458,0.610296 -1.598595,0.981046 -2.60317,0.955517 C 9.2069305,12.115442 8.3359318,11.698713 7.7489152,11.056155 7.1733487,10.424521 6.8795898,9.5850939 6.9898324,8.6924484" />
	<path
		 id="path3462"
		 style="opacity:1;fill:#0d528a;fill-opacity:1;fill-rule:nonzero;stroke:none"
		 d="M 8.3406122,8.8090461 C 8.3705262,8.2755927 8.632137,7.8053915 9.026103,7.4722371 9.4130147,7.1447983 9.9331297,6.9447533 10.50122,6.9447533 c 0.567246,0 1.087642,0.200045 1.474272,0.5274838 0.394249,0.3331544 0.655293,0.8033556 0.685491,1.3361738 0.02991,0.5485681 -0.19021,1.057762 -0.577123,1.4353711 -0.394248,0.384086 -0.954721,0.62541 -1.58264,0.62541 -0.6282012,0 -1.1898013,-0.241324 -1.5840501,-0.62541 C 8.5305404,9.8661729 8.310698,9.356979 8.3406122,8.8090461"/>
	<path
		 id="path3464"
		 style="opacity:1;fill:#f5792a;fill-opacity:1;fill-rule:nonzero;stroke:none"
		 d="m 4.9004589,9.8873841 c 0.00369,0.2090629 0.070271,0.6146149 0.1701741,0.9315109 0.2099644,0.670881 0.566115,1.291465 1.0619597,1.838637 0.5085444,0.561904 1.134771,1.013688 1.8580778,1.334014 0.7599949,0.336965 1.583769,0.508179 2.4394325,0.506781 0.854536,-0.0127 1.678028,-0.17604 2.438304,-0.515291 0.723308,-0.323374 1.34897,-0.77719 1.856948,-1.339602 0.495,-0.54895 0.850868,-1.170677 1.061116,-1.841431 0.106105,-0.339251 0.172712,-0.682948 0.199524,-1.0284223 0.02654,-0.3400131 0.01526,-0.6804071 -0.03303,-1.0208012 C 15.858702,8.089392 15.629262,7.4674106 15.276217,6.9001719 14.952805,6.3789116 14.53626,5.9221738 14.04098,5.5382144 l 0.0013,0 -4.9985211,-3.8380706 c -0.00429,-0.012701 -0.0079,-0.012701 -0.012707,-0.012701 C 8.7029367,1.4353223 8.1514959,1.4365925 7.791113,1.7001438 7.4262137,1.9549314 7.3847286,2.3768677 7.708989,2.6432133 l -0.00116,0.012701 2.0844113,1.6952389 -6.3539822,0.012701 c -0.00311,0 -0.00596,0 -0.00847,0 C 2.9045887,4.3641076 2.3997127,4.7086932 2.3000923,5.1444739 2.1970855,5.5881293 2.5537997,5.9560851 3.0998786,5.9578633 L 3.0994377,5.970564 6.3197479,5.9578633 0.57280145,10.369142 c -0.00705,0.0127 -0.0152403,0.0127 -0.0220139,0.01651 -0.54212752,0.414824 -0.71709834,1.105392 -0.37562311,1.542062 0.34627302,0.444417 1.08340856,0.445307 1.63118076,0.0127 L 4.9428347,9.3736176 c 0,0 -0.045999,0.3463637 -0.04233,0.5544105 z M 12.960407,11.048026 C 12.313862,11.706461 11.409376,12.079878 10.430103,12.08191 9.4497019,12.094611 8.5452155,11.713192 7.89867,11.055901 7.5828755,10.735702 7.3508983,10.367365 7.2078175,9.9745149 7.0678408,9.5890312 7.0130915,9.1795421 7.0492147,8.7663698 7.0836415,8.3623423 7.2035838,7.9773667 7.3957701,7.6284628 7.5842863,7.2861635 7.8436387,6.9762524 8.1645123,6.7144792 8.7924323,6.202491 9.5922188,5.9256031 10.428974,5.9244601 c 0.83732,-0.012701 1.636543,0.2734584 2.265027,0.7835415 0.320028,0.2607572 0.579661,0.569144 0.768178,0.9114432 0.192749,0.3482689 0.312125,0.7317204 0.347686,1.137018 0.03527,0.4126643 -0.01919,0.8216453 -0.15917,1.2076369 -0.14336,0.3937393 -0.374492,0.7620763 -0.690288,1.0839263" />
	<rect
		 style="opacity:0.01;fill:#0d528a;fill-opacity:1;stroke:none;stroke-width:0.75;stroke-linecap:square;stroke-miterlimit:4;stroke-dasharray:none;stroke-dashoffset:0;stroke-opacity:1"
		 id="rect3462"
		 width="16"
		 height="16"
		 x="1.0290367e-009"
		 y="-0.032214183" />
	</g>
</svg>
